Coordinates
version=1
nRows=6
nColumns=36
inDegrees=yes

Units are S.I. units (second, meters, Newtons, ...)
If the header above contains a line with 'inDegrees', this indicates whether rotational values are in degrees (yes) or radians (no).

endheader
time	pelvis_tilt	pelvis_list	pelvis_rotation	pelvis_tx	pelvis_ty	pelvis_tz	hip_flexion_r	hip_adduction_r	hip_rotation_r	knee_angle_r	knee_angle_r_beta	ankle_angle_r	subtalar_angle_r	mtp_angle_r	hip_flexion_l	hip_adduction_l	hip_rotation_l	knee_angle_l	knee_angle_l_beta	ankle_angle_l	subtalar_angle_l	mtp_angle_l	lumbar_extension	lumbar_bending	lumbar_rotation	arm_flex_r	arm_add_r	arm_rot_r	elbow_flex_r	pro_sup_r	arm_flex_l	arm_add_l	arm_rot_l	elbow_flex_l	pro_sup_l
     44.65000000	     -3.32842971	    -10.82876718	     -0.62203802	      0.73604802	      1.00866510	      0.86382106	     26.75481782	     10.23810701	     -5.79137456	     23.45768591	      0.40941385	      5.13657485	     -8.35706018	     -7.49999987	     -4.42562476	    -15.18769595	     -2.18465109	     44.72332758	      0.78056932	    -11.93132324	     -4.57744697	     -7.49999987	     -5.49623687	     17.03792795	      0.85553339	     -0.37764999	    -14.14016806	     -6.51028356	     13.04081783	     79.04732562	     13.23884074	     -6.09395319	     -1.22225952	     56.78605434	     71.01509839
     44.66666670	     -2.98988867	    -11.73098379	     -0.00018869	      0.73995089	      1.01622863	      0.86806377	     24.86869605	     11.22411133	     -6.48042980	     22.92323636	      0.40008595	      6.03808316	     -8.43626384	     -7.49999987	     -2.53526170	    -16.55329718	     -0.75948431	     48.57433231	      0.84778203	    -14.75353167	     -4.18122212	     -7.49999987	     -5.56399520	     18.02887208	      0.97435494	     -0.17866870	    -14.17757383	     -5.61294934	     13.47403555	     77.62416789	     11.56686288	     -5.59186858	     -1.13184740	     54.78031148	     70.09837557
     44.68333330	     -2.44063055	    -12.16582221	      0.60291059	      0.74158977	      1.02195592	      0.87118708	     22.60186914	     11.78993927	     -7.07803186	     22.16783791	      0.38690176	      7.18104003	     -7.96040321	     -7.49999987	     -0.75531697	    -17.22157564	      0.77761278	     51.84127868	      0.90480100	    -15.72576190	     -4.31029577	     -7.49999987	     -6.09082886	     18.48385325	      1.22176932	      0.18219234	    -14.14862535	     -4.53449892	     14.13867270	     78.45050341	     10.12853992	     -5.32032996	     -0.87716790	     52.20888710	     70.48792566
     44.70000000	     -1.82113866	    -12.27942179	      1.23596573	      0.74085872	      1.02472448	      0.87345286	     20.15011805	     12.06631028	     -7.52705946	     21.26587171	      0.37115948	      7.96699771	     -7.78427546	     -7.49999987	      1.29246648	    -17.47444073	      2.30509085	     54.73659240	      0.95533376	    -14.80330162	     -4.65766446	     -7.49999987	     -6.79568739	     18.58228660	      1.13348990	      0.98509576	    -13.89007570	     -3.96918602	     14.90707002	     76.42631365	      8.82852799	     -5.27112155	     -0.70557443	     49.31324483	     69.11928539
     44.71666670	     -1.17876563	    -11.91206236	      1.85478020	      0.73882628	      1.02726734	      0.87510816	     17.67021966	     11.78947841	     -8.16732667	     20.43364799	      0.35663444	      8.98429686	     -6.91903565	     -7.49999987	      3.70480747	    -17.10825975	      3.76841695	     57.42742950	      1.00229773	    -13.15695220	     -5.89583321	     -7.49999987	     -7.62130969	     18.08583457	      1.44071816	      1.72778264	    -13.61760960	     -3.23707911	     15.80257240	     75.88878217	      8.11469210	     -5.13913335	     -0.37172671	     45.81121078	     68.67536939
     44.73333330	     -0.59480718	    -11.27315466	      2.29174375	      0.73667144	      1.03039811	      0.87685412	     15.22637841	     11.28473792	     -8.57240597	     19.53833900	      0.34100835	      9.85523403	     -6.06877437	     -7.49999987	      6.42223785	    -16.42368479	      4.84717769	     59.96908440	      1.04665797	    -11.24905490	     -7.55670211	     -7.49999987	     -8.48930574	     17.26380462	      1.91791701	      2.49238099	    -13.26582563	     -2.52808500	     17.03390568	     75.46609844	      7.46972472	     -4.99948440	     -0.27175571	     42.38646186	     68.28031801
